<svg width="661" height="1023" viewBox="0 0 661 1023" fill="none" xmlns="http://www.w3.org/2000/svg">
<g filter="url(#filter0_dddddd)">
<path d="M85.0468 1023C82.2902 1023 80.085 1021.09 80.085 1018.8V1017.27C80.085 1014.98 82.4005 1013.08 85.0468 1013.08H198.067C200.824 1013.08 203.029 1014.98 203.029 1017.27V1018.8C203.029 1021.09 200.713 1023 198.067 1023H85.0468ZM388.272 1013.08H575.72C578.461 1013.08 580.682 1015.3 580.682 1018.04C580.682 1020.78 578.461 1023 575.72 1023H388.272C385.532 1023 383.31 1020.78 383.31 1018.04C383.31 1015.3 385.532 1013.08 388.272 1013.08Z" fill="#FF5645"/>
<path d="M576.309 1013.11C576.116 1013.09 575.919 1013.08 575.72 1013.08H388.272C387.958 1013.08 387.651 1013.1 387.353 1013.16L396.21 942.507H479.129C487.103 948.185 493.682 953.036 498.867 957.062C500.394 958.247 501.899 959.438 503.381 960.633C510.703 966.537 518.751 971.48 527.328 975.342C535.85 979.179 544.373 983.156 552.896 987.274C558.189 989.81 563.261 992.567 568.333 995.764C570.759 997.969 575.059 1002.38 576.382 1007.67C576.603 1008.55 576.603 1009.44 576.713 1010.21C576.713 1011.24 576.56 1012.21 576.309 1013.11ZM199.879 1013.37C199.318 1013.18 198.708 1013.08 198.067 1013.08H86.4653C90.9327 1003.39 100.898 979.887 116.362 942.564H203.798L199.879 1013.37Z" fill="#2D2A32"/>
<path d="M321.457 591.812L235.945 898.747C231.96 913.052 218.929 922.948 204.079 922.948H134.295C116.026 922.948 101.216 908.138 101.216 889.869C101.216 887.062 101.573 884.266 102.279 881.549L194.242 527.686C207.68 454.164 218.978 406.459 228.136 384.571C242.592 350.024 271.083 332.785 283.429 331.909C341.641 327.783 371.664 329.514 373.498 337.101C389.261 341.735 429.646 407.084 464.024 567.009C485.268 665.835 496.72 774.398 498.379 892.699C498.635 910.966 484.034 925.982 465.767 926.239C465.608 926.241 465.448 926.242 465.289 926.242L400.364 926.214C382.874 926.207 368.413 912.586 367.359 895.128L352.549 649.76L321.457 591.812Z" fill="#2D9CDB"/>
<path d="M519.965 164.147L525.401 241.889C525.699 246.141 522.493 249.829 518.24 250.127L489.641 252.127C485.389 252.424 481.701 249.218 481.403 244.965L474.788 150.37C474.748 149.786 474.773 149.213 474.858 148.659L474.249 148.45L443.897 143.398C433.294 141.633 425.172 133.008 424.049 122.317L424.046 122.289C422.92 111.58 428.989 101.411 438.948 97.3172L469.571 84.7295L536.288 39.5722C537.423 38.8039 538.742 38.3518 540.11 38.2622C544.364 37.9834 548.038 41.2057 548.317 45.4594L556.167 165.267C556.234 166.288 556.098 167.311 555.766 168.279C554.381 172.31 549.991 174.457 545.959 173.072L519.965 164.147Z" fill="#E9E9E9"/>
<path opacity="0.176986" d="M510.987 140.302L482.388 142.301C478.136 142.599 474.93 146.287 475.227 150.54L481.842 245.135C482.139 249.388 485.827 252.594 490.08 252.297L518.678 250.297C522.931 249.999 526.137 246.311 525.84 242.059L519.225 147.463C518.928 143.21 515.239 140.004 510.987 140.302Z" fill="#444444"/>
<path d="M552.895 40.8983C552.555 36.0384 548.34 32.3742 543.48 32.714C538.62 33.0539 534.956 37.2691 535.296 42.129L544.141 168.623C544.481 173.483 548.696 177.147 553.556 176.808C558.416 176.468 562.08 172.253 561.741 167.393L552.895 40.8983Z" fill="#2D9CDB"/>
<path d="M358.81 159.123C376.574 166.965 389.419 181.857 394.204 198.696C395.856 204.43 396.166 210.604 395.546 216.559L388.734 294.074C388.631 295.287 388.528 296.39 388.528 297.602C388.424 303.336 387.289 310.393 382.851 316.237C376.451 324.838 366.543 336.967 325.257 336.526C286.861 336.085 277.675 323.956 271.482 315.576C267.044 309.621 266.115 301.462 266.011 295.949C266.011 294.736 265.908 293.633 265.805 292.42L262.86 254.559C260.055 256.862 257.444 258.635 255.071 259.687C246.003 263.704 239.905 255.721 236.776 235.736C226.809 222.887 197.345 204.159 245.437 167.575C263.462 153.863 280.214 153.449 292.995 159.21C301.243 155.788 310.639 153.746 320.778 153.34L320.983 150.406C321.196 147.369 323.83 145.079 326.868 145.291L354.366 147.214C357.404 147.427 359.694 150.061 359.482 153.098L359.174 157.498C359.134 158.07 359.008 158.616 358.81 159.123Z" fill="#FF5645"/>
<path d="M116.362 942.565L123.695 921.283L205.506 922.949L203.798 942.565H116.362ZM456.225 532.098C423.622 396.81 387.852 340.826 373.429 337.045C373.417 336.974 373.403 336.904 373.387 336.834C383.67 329.527 395.898 319.192 410.071 305.827C444.618 362.694 463.114 418.29 465.559 472.615C466.97 503.979 463.859 523.807 456.225 532.098ZM466.303 180.05C466.931 179.746 467.61 179.523 468.33 179.396L517.195 170.78C521.393 170.04 525.396 172.843 526.136 177.041L526.711 180.299C527.052 182.236 526.639 184.132 525.683 185.684C527.036 186.811 528.012 188.404 528.342 190.273L528.916 193.53C529.411 196.334 528.324 199.051 526.297 200.767C528.986 201.588 531.128 203.854 531.65 206.812L532.224 210.07C532.964 214.268 530.161 218.271 525.963 219.011L486.216 226.02C423.509 296.327 379.993 336.745 355.666 347.272C333.622 356.812 300.201 327.362 255.404 258.921C269.035 252.111 289.989 223.224 310.823 206.129C311.084 205.914 311.337 205.693 311.581 205.466L354.339 260.271C428.941 206.697 466.242 179.909 466.242 179.909L466.303 180.05ZM357.783 136.394L357.107 148.539C337.721 147.951 326.948 147.044 324.787 145.819L325.436 125.645L324.788 117.953L325.347 111.724L334.303 112.663L334.753 111.631C334.635 111.528 334.627 111.418 334.627 111.418C334.22 110.341 333.169 109.531 332.289 109.592C330.271 109.181 327.224 108.288 324.517 105.935C320.743 102.552 318.246 96.8681 319.606 91.0253C320.871 85.4101 321.287 76.5365 326.574 76.2773C329.552 76.1797 334.282 76.0804 334.627 76.2773C334.973 76.4742 342.246 81.2627 341.951 78.6305C341.755 76.8757 340.732 67.5151 338.882 50.5486C338.759 48.7887 339.971 47.1565 341.723 46.9234C344.906 46.5904 347.955 45.935 351.091 44.942C354.47 44.2636 356.867 43.7644 357.629 43.6006C362.965 42.4537 372.667 42.1068 381.493 45.0267C385.246 46.5328 388.943 48.8166 392.159 52.1288C392.99 52.9549 393.837 54.001 394.684 55.0471C394.927 55.3617 395.17 55.6763 395.421 56.1009C397.882 59.6869 399.392 63.8921 399.7 68.2919L401.407 87.958C401.435 89.9456 401.574 91.9255 401.382 93.9285C399.797 118.688 391.231 136.862 382.186 138.71C381.101 139.007 375.2 139.972 368.053 138.925C367.377 138.751 367.943 138.933 358.268 136.514C358.105 136.474 357.943 136.434 357.783 136.394ZM395.805 948.834L398.204 926.243L472.329 925.384L479.516 943.461L395.805 948.834Z" fill="#F2A98A"/>
<path opacity="0.176986" d="M321.155 591.098L373.176 337.694C373.184 337.453 373.168 337.217 373.125 336.986C388.554 340.469 429.393 405.522 464.108 567.014C485.404 666.081 496.837 774.688 498.407 892.835C498.642 910.574 484.453 925.145 466.715 925.381C466.572 925.383 466.43 925.384 466.288 925.384C456.508 925.384 434.668 925.55 400.767 925.884C383.147 926.058 368.484 912.388 367.422 894.8L352.632 649.764L321.155 591.098Z" fill="#444444"/>
<path opacity="0.2" d="M456.225 532.097C423.622 396.809 387.852 340.825 373.429 337.044C373.417 336.973 373.403 336.903 373.387 336.833C383.67 329.526 395.898 319.191 410.071 305.826C444.618 362.693 463.114 418.289 465.559 472.614C466.97 503.978 463.859 523.806 456.225 532.097Z" fill="#8C2A00"/>
<path d="M357.222 147.174L345.798 132.996L358.144 136.48L357.222 147.174Z" fill="#482D1F"/>
<path d="M345.404 88.6072L344.139 86.2145C344.139 86.2145 342.133 82.8177 338.106 80.557C337.761 80.3601 335.241 79.0994 332.263 79.1971C326.976 79.4563 322.012 84.3353 320.746 89.9504C319.276 95.8009 321.774 101.485 325.54 104.758C329.313 108.142 334.429 108.521 335.882 108.751L335.914 108.748C338.123 113.327 338.333 118.223 336.543 123.438C334.993 127.953 330.681 132.215 325.565 135.675L315.83 135.02L325.086 122.843C321.566 120.007 316.182 115.439 312.976 111.606C310.443 108.577 302.338 101.738 299.151 89.3604C298.811 87.886 298.147 85.1829 297.786 81.7789C291.61 85.1797 284.16 86.5152 276.582 85.0421C259.844 81.7886 248.818 66.067 251.956 49.9269C255.093 33.7868 271.205 23.3401 287.943 26.5936C300.828 29.0982 310.328 38.9916 312.587 50.7766C319.609 47.2903 326.479 48.2023 341.339 46.1763C342.651 45.974 344.836 45.6002 347.68 45.1802C348.883 44.9856 349.865 44.8064 350.847 44.6271C354.226 43.9487 356.623 43.4495 357.385 43.2857C362.721 42.1388 372.424 41.792 381.25 44.7119C385.003 46.218 388.699 48.5017 391.915 51.8139C392.747 52.64 396.248 56.4444 397.095 57.4905C398.14 61.0616 394.373 62.4627 391.779 63.3072C383.668 65.864 372.286 60.3711 367.81 59.5788C360.6 68.7046 353.492 77.7126 346.393 86.8306C346.076 87.3799 345.746 87.9742 345.404 88.6072ZM403.872 83.4498C401.693 84.0057 398.302 84.625 395.283 83.8999C390.253 82.7282 394.954 79.7214 399.469 79.4848C401.671 79.3694 403.374 80.2739 404.412 81.1028C405.327 81.7173 404.962 83.1719 403.872 83.4498ZM382.659 85.0977C380.524 85.8042 377.185 86.6586 373.89 86.0633C368.804 85.3547 373.27 81.9179 377.757 81.367C380.056 81.0848 381.818 81.8682 382.911 82.6228C383.99 83.2679 383.727 84.7444 382.659 85.0977Z" fill="#482D1F"/>
<path d="M396.298 92.4025C396.293 91.0747 397.295 89.8802 398.613 89.7649C399.492 89.688 400.299 90.0601 400.754 91.4592C402.05 94.8877 399.206 100.339 397.505 98.6059C396.401 97.3743 396.242 94.289 396.298 92.4025ZM376.646 94.2325C376.64 92.9048 377.642 91.7102 378.961 91.5949C379.839 91.518 380.647 91.8901 381.101 93.2893C382.397 96.7178 379.554 102.169 377.852 100.436C376.748 99.2043 376.589 96.1191 376.646 94.2325ZM386.557 115.499C385.775 115.319 383.874 114.867 383.481 113.673C383.469 113.453 383.342 113.128 383.44 112.902C383.84 112.108 385.185 112.479 387.172 112.486C390.702 112.411 393.547 111.931 393.547 111.931C393.547 111.931 392.892 114.173 392.376 114.863C391.367 116.682 387.786 115.766 386.557 115.499ZM390.844 94.0509L390.839 93.9785L390.825 93.9073L390.844 94.0509ZM393.204 105.597C393.478 106.838 392.58 108.108 391.335 108.383C391.196 108.412 391.07 108.436 390.944 108.46C390.171 108.602 389.448 108.688 388.103 108.812C387.896 108.831 387.108 108.902 387.098 108.903C386.662 108.942 386.305 108.975 385.935 109.011C385.329 109.069 384.79 108.625 384.732 108.019C384.673 107.413 385.118 106.874 385.724 106.816C386.098 106.78 386.459 106.746 386.899 106.707C386.911 106.705 387.696 106.635 387.902 106.616C389.184 106.498 389.854 106.418 390.544 106.291C390.654 106.271 390.764 106.249 390.873 106.227C390.958 106.208 391.051 106.076 391.047 106.055L388.664 94.3472L388.644 94.2036L388.194 87.7127C388.152 87.1052 388.61 86.5786 389.217 86.5364C389.825 86.4942 390.351 86.9525 390.394 87.56L390.839 93.9785L393.204 105.597Z" fill="#482D1F"/>
<path d="M312.954 206.422C312.225 192.81 308.737 179.793 302.496 167.387C302.086 166.571 301.092 166.242 300.276 166.652C299.46 167.063 299.131 168.057 299.541 168.873C305.578 180.874 308.946 193.445 309.651 206.599C309.7 207.512 310.479 208.211 311.391 208.162C312.304 208.114 313.003 207.334 312.954 206.422Z" fill="#482D1F"/>
</g>
<defs>
<filter id="filter0_dddddd" x="0.0849609" y="0" width="660.597" height="1157" filterUnits="userSpaceOnUse" color-interpolation-filters="sRGB">
<feFlood flood-opacity="0" result="BackgroundImageFix"/>
<feColorMatrix in="SourceAlpha" type="matrix" values="0 0 0 0 0 0 0 0 0 0 0 0 0 0 0 0 0 0 127 0"/>
<feOffset dy="1.49432"/>
<feGaussianBlur stdDeviation="1.1069"/>
<feColorMatrix type="matrix" values="0 0 0 0 0 0 0 0 0 0 0 0 0 0 0 0 0 0 0.0562291 0"/>
<feBlend mode="normal" in2="BackgroundImageFix" result="effect1_dropShadow"/>
<feColorMatrix in="SourceAlpha" type="matrix" values="0 0 0 0 0 0 0 0 0 0 0 0 0 0 0 0 0 0 127 0"/>
<feOffset dy="3.59106"/>
<feGaussianBlur stdDeviation="2.66004"/>
<feColorMatrix type="matrix" values="0 0 0 0 0 0 0 0 0 0 0 0 0 0 0 0 0 0 0.0807786 0"/>
<feBlend mode="normal" in2="effect1_dropShadow" result="effect2_dropShadow"/>
<feColorMatrix in="SourceAlpha" type="matrix" values="0 0 0 0 0 0 0 0 0 0 0 0 0 0 0 0 0 0 127 0"/>
<feOffset dy="6.76164"/>
<feGaussianBlur stdDeviation="5.00862"/>
<feColorMatrix type="matrix" values="0 0 0 0 0 0 0 0 0 0 0 0 0 0 0 0 0 0 0.1 0"/>
<feBlend mode="normal" in2="effect2_dropShadow" result="effect3_dropShadow"/>
<feColorMatrix in="SourceAlpha" type="matrix" values="0 0 0 0 0 0 0 0 0 0 0 0 0 0 0 0 0 0 127 0"/>
<feOffset dy="12.0616"/>
<feGaussianBlur stdDeviation="8.93452"/>
<feColorMatrix type="matrix" values="0 0 0 0 0 0 0 0 0 0 0 0 0 0 0 0 0 0 0.119221 0"/>
<feBlend mode="normal" in2="effect3_dropShadow" result="effect4_dropShadow"/>
<feColorMatrix in="SourceAlpha" type="matrix" values="0 0 0 0 0 0 0 0 0 0 0 0 0 0 0 0 0 0 127 0"/>
<feOffset dy="22.5599"/>
<feGaussianBlur stdDeviation="16.711"/>
<feColorMatrix type="matrix" values="0 0 0 0 0 0 0 0 0 0 0 0 0 0 0 0 0 0 0.143771 0"/>
<feBlend mode="normal" in2="effect4_dropShadow" result="effect5_dropShadow"/>
<feColorMatrix in="SourceAlpha" type="matrix" values="0 0 0 0 0 0 0 0 0 0 0 0 0 0 0 0 0 0 127 0"/>
<feOffset dy="54"/>
<feGaussianBlur stdDeviation="40"/>
<feColorMatrix type="matrix" values="0 0 0 0 0 0 0 0 0 0 0 0 0 0 0 0 0 0 0.2 0"/>
<feBlend mode="normal" in2="effect5_dropShadow" result="effect6_dropShadow"/>
<feBlend mode="normal" in="SourceGraphic" in2="effect6_dropShadow" result="shape"/>
</filter>
</defs>
</svg>
