<svg width="30" height="31" viewBox="0 0 30 31" fill="none" xmlns="http://www.w3.org/2000/svg">
<path d="M25.4545 26.9743C29.0798 23.5907 30.6911 17.9514 29.7243 12.5537H15.3037V18.5153H23.521C23.1988 20.4488 22.0709 22.06 20.4597 23.1074L25.4545 26.9743Z" fill="#4285F4"/>
<path d="M1.60815 22.221C2.66795 24.3087 4.18784 26.1285 6.05324 27.5434C7.91865 28.9582 10.0809 29.9312 12.377 30.3888C14.6731 30.8465 17.0432 30.777 19.3085 30.1855C21.5738 29.594 23.6753 28.4959 25.4545 26.9741L20.4597 23.1072C16.1899 25.9268 9.10043 24.8795 6.68357 18.2734L1.60815 22.221Z" fill="#34A853"/>
<path d="M6.68351 18.2739C6.03901 16.2598 6.03901 14.4069 6.68351 12.3929L1.6081 8.44531C-0.244834 12.1512 -0.808769 17.3877 1.6081 22.2214L6.68351 18.2739Z" fill="#FBBC02"/>
<path d="M6.68357 12.3928C8.45593 6.83398 16.0288 3.6115 21.1042 8.36466L25.5351 4.01431C19.2513 -2.02785 7.00582 -1.78617 1.60815 8.44522L6.68357 12.3928Z" fill="#EA4335"/>
</svg>
