<svg width="739" height="747" viewBox="0 0 739 747" fill="none" xmlns="http://www.w3.org/2000/svg">
<g filter="url(#filter0_dddddd)">
<path d="M533.14 582.013C533.316 593.483 533.461 605.319 533.461 617.296C533.461 617.296 538.564 668.567 515.367 690.024C512.815 692.509 509.8 694.316 507.248 695.897C501.913 699.059 497.273 700.414 497.273 700.414C497.273 700.414 497.041 700.64 496.809 700.64C459.694 710.578 429.305 707.642 413.299 708.093C361.801 709.223 320.046 708.997 283.858 707.867C261.821 707.19 168.336 713.288 156.505 696.122C156.273 695.671 156.041 695.219 155.809 694.767C153.722 690.024 152.098 684.152 150.938 677.15C150.706 676.472 150.474 675.569 150.474 674.891C146.641 652.094 146.278 618.981 150.17 579.313L38.7739 570.172C31.482 569.574 25.8983 563.432 25.995 556.117C26.4916 518.547 28.5267 492.811 32.1002 478.909C48.6216 414.634 80.1936 386.833 82.982 376.877C98.834 319.384 114.592 298.982 120.963 292.829C128.283 285.532 135.33 280.551 140.025 277.385C171.713 256.361 204.937 253.693 221.877 253.525C222.345 253.301 222.808 253.309 223.272 253.317L305.63 253.595C312.332 253.427 313.695 253.165 312.374 254.686C322.444 253.303 333.958 251.915 346.491 250.721C365.137 251.003 382.057 252.018 397.251 253.765L466.513 254.741C466.977 254.741 467.441 254.741 467.904 254.973C484.838 255.437 518.011 258.684 549.327 280.258C553.966 283.506 560.926 288.609 568.117 296.032C574.38 302.295 589.779 322.97 604.625 380.731C607.239 390.733 638.321 419.082 653.719 483.635C657.049 497.597 658.634 523.365 658.475 560.937C658.444 568.254 652.754 574.297 645.453 574.768L533.14 582.013H533.14Z" fill="#DE3190"/>
<path d="M135.396 694.285L139.803 691.965L216.818 650.906C216.818 650.906 403.556 607.339 510.96 587.39C529.517 574.167 639.936 577.138 642.952 574.123C650.607 647.89 660.344 721.538 567.136 721.538L99.4401 713.538L135.396 694.285Z" fill="#F2A98A"/>
<path d="M208.931 508.01C213.571 492.932 235.84 423.572 241.175 409.19" stroke="#482D1F" stroke-width="3.28239" stroke-linecap="round" stroke-linejoin="round"/>
<path d="M480.638 409.19L512.604 580.313" stroke="#482D1F" stroke-width="3.28239" stroke-linecap="round" stroke-linejoin="round"/>
<path d="M326.692 169.955L380.823 191.368L381.287 202.734V202.966L379.895 266.063C379.895 267.919 378.503 269.775 376.647 270.239C367.369 273.022 350.899 276.27 331.645 271.862C320.974 269.543 312.391 265.367 306.36 261.656C304.968 260.96 304.272 259.336 304.272 257.712L306.744 185.149C300.114 178.425 290.784 168.446 285.25 160.283C280.611 153.556 265.301 137.318 261.125 110.873C259.965 102.058 255.558 72.3658 273.884 49.4005C280.379 41.2815 287.802 37.106 291.05 35.4822C308.448 26.2033 322.134 30.3788 356.698 28.9869C359.482 28.755 364.121 28.755 369.92 28.291C380.591 27.5951 388.014 26.6672 390.102 26.4352C407.268 24.5795 444.615 27.8271 462.477 52.6482C463.405 54.272 464.565 55.8958 465.725 57.2876C461.086 59.3754 455.75 62.623 449.719 64.0148C432.553 67.7264 417.707 65.1747 408.428 62.623C391.958 80.2529 375.488 97.8828 359.018 115.281C350.234 127.578 336.569 151.841 326.692 169.955Z" fill="#F2A98A"/>
<path d="M384.535 217.813L348.115 211.085L379.663 249.593L384.535 217.813Z" fill="#482D1F"/>
<path d="M475.468 89.532L474.54 131.055C474.308 135.231 474.076 139.406 473.148 143.582C468.045 173.042 458.534 197.631 447.863 213.405C439.976 225.236 431.161 232.195 422.81 232.891C420.49 233.355 407.964 233.819 393.349 230.107C391.958 229.643 393.117 230.339 373.4 222.916C365.745 220.133 359.713 217.813 355.074 215.725C346.723 212.246 342.315 209.926 339.996 208.534C338.372 207.838 337.908 207.374 337.908 207.374C327.005 186.497 317.726 167.475 309.839 150.773C305.2 140.798 300.328 130.823 302.88 118.529C303.808 113.657 306.36 101.595 317.03 95.3313C327.469 89.3 339.068 92.3156 342.315 93.2435C346.723 94.4034 350.203 96.2592 352.29 97.651L352.058 38.266C352.058 34.5544 355.074 31.3068 358.786 31.3068C366.905 31.0748 375.024 30.3789 383.607 28.0592C384.535 27.8272 385.462 27.8272 386.39 27.5952C394.277 26.4354 438.352 21.7959 462.941 53.3442C465.261 55.8959 467.117 58.9116 468.973 62.6231C473.38 71.2061 475.7 80.2531 475.468 89.532Z" fill="#F2A98A"/>
<path d="M465.725 57.2875C461.086 59.3753 455.75 62.6229 449.487 64.0147C432.089 67.7263 416.779 65.1746 407.5 62.6229C390.798 80.2528 368.065 103.682 351.131 121.312C319.582 122.704 294.065 118.064 262.517 119.456C262.517 119.456 259.501 116.209 257.877 111.337C255.558 104.378 250.686 74.4535 270.868 49.8644C277.363 41.7454 285.018 37.5699 288.266 35.946C305.896 26.6671 319.814 30.8426 355.074 29.4508C357.858 29.2188 362.497 29.2188 368.528 28.7549C379.431 28.059 386.854 27.1311 389.174 26.8991C406.572 25.0433 444.615 28.2909 462.709 53.112C463.405 54.2719 464.565 55.8957 465.725 57.2875Z" fill="#482D1F"/>
<path d="M357.162 144.51L354.146 114.817C354.146 114.817 352.754 106.466 346.491 98.5789C346.027 98.115 341.851 93.2435 335.588 91.1558C324.454 87.4442 310.535 93.2436 303.112 103.682C295.457 114.353 296.153 128.039 301.256 138.246C306.36 148.453 315.175 152.629 318.19 154.02L330.485 156.572L357.162 144.51Z" fill="#F2A98A"/>
<path d="M449.255 134.303C449.255 131.519 451.111 128.967 453.894 128.503C455.75 128.271 457.374 128.735 458.534 131.751C461.549 138.942 456.446 150.541 452.502 147.061C450.183 144.741 449.487 138.246 449.255 134.303Z" fill="#482D1F"/>
<path d="M407.732 133.839C407.964 131.055 410.284 128.735 413.067 128.735C414.923 128.735 416.547 129.431 417.475 132.447C419.794 139.87 413.299 151.004 409.82 147.061C407.5 144.277 407.5 137.782 407.732 133.839Z" fill="#482D1F"/>
<path d="M426.753 181.625C425.13 181.161 421.186 180.001 420.49 177.45C420.49 176.986 420.258 176.29 420.49 175.826C421.418 174.202 424.202 175.13 428.377 175.362C435.8 175.826 441.832 175.13 441.832 175.13C441.832 175.13 440.208 179.769 439.048 181.161C436.496 184.641 429.073 182.321 426.753 181.625Z" fill="#482D1F"/>
<path d="M467.349 118.065C469.669 117.601 470.364 114.585 468.741 112.961C466.653 111.106 462.941 109.25 458.302 109.25C448.791 109.25 438.584 115.513 449.255 118.297C455.518 120.152 462.941 118.993 467.349 118.065Z" fill="#482D1F"/>
<path d="M419.563 119.688C421.882 119.224 422.578 116.209 420.722 114.585C418.635 112.729 414.923 110.873 410.052 110.873C400.541 110.873 390.334 117.369 401.005 119.92C407.732 121.776 414.923 120.616 419.563 119.688Z" fill="#482D1F"/>
<path d="M440.208 121.08V134.766L443.688 159.587C443.92 160.979 442.76 162.371 441.368 162.603C438.352 162.835 435.569 163.067 430.233 163.067" stroke="#482D1F" stroke-width="2.18826" stroke-linecap="round" stroke-linejoin="round"/>
<path d="M295.921 115.977C294.761 123.4 296.153 131.287 299.401 137.55C304.504 147.757 313.319 151.932 316.335 153.324" stroke="#482D1F" stroke-width="2.18826" stroke-linecap="round" stroke-linejoin="round"/>
<path d="M271.193 454.313C291.216 371.655 304.691 322.663 311.618 307.338C318.462 292.196 319.451 303.272 324.255 309.566C326.744 312.827 325.737 304.778 329.607 305.46C337.167 306.793 341.618 311.903 342.961 320.791C349.658 324.673 352.479 329.604 351.425 335.583C350.661 339.917 356.713 348.894 343.962 402.173C339.433 421.1 351.455 446.98 346.8 467.256L346.992 467.289C335.515 510.417 297.923 576.678 234.216 666.07C138.656 800.159 57.453 729.916 35.6437 714.838C21.1041 704.786 21.1041 656.334 35.6437 569.483L141.212 578.298L271.193 454.313Z" fill="#F2A98A"/>
<path d="M139.571 578.299L116.723 591.831" stroke="#482D1F" stroke-width="3.28239" stroke-linecap="round" stroke-linejoin="round"/>
<path d="M253.47 638.408L195.477 710.319" stroke="#482D1F" stroke-width="3.28239" stroke-linecap="round" stroke-linejoin="round"/>
</g>
<defs>
<filter id="filter0_dddddd" x="-55.261" y="0" width="793.747" height="880.67" filterUnits="userSpaceOnUse" color-interpolation-filters="sRGB">
<feFlood flood-opacity="0" result="BackgroundImageFix"/>
<feColorMatrix in="SourceAlpha" type="matrix" values="0 0 0 0 0 0 0 0 0 0 0 0 0 0 0 0 0 0 127 0"/>
<feOffset dy="1.49432"/>
<feGaussianBlur stdDeviation="1.1069"/>
<feColorMatrix type="matrix" values="0 0 0 0 0 0 0 0 0 0 0 0 0 0 0 0 0 0 0.0562291 0"/>
<feBlend mode="normal" in2="BackgroundImageFix" result="effect1_dropShadow"/>
<feColorMatrix in="SourceAlpha" type="matrix" values="0 0 0 0 0 0 0 0 0 0 0 0 0 0 0 0 0 0 127 0"/>
<feOffset dy="3.59106"/>
<feGaussianBlur stdDeviation="2.66004"/>
<feColorMatrix type="matrix" values="0 0 0 0 0 0 0 0 0 0 0 0 0 0 0 0 0 0 0.0807786 0"/>
<feBlend mode="normal" in2="effect1_dropShadow" result="effect2_dropShadow"/>
<feColorMatrix in="SourceAlpha" type="matrix" values="0 0 0 0 0 0 0 0 0 0 0 0 0 0 0 0 0 0 127 0"/>
<feOffset dy="6.76164"/>
<feGaussianBlur stdDeviation="5.00862"/>
<feColorMatrix type="matrix" values="0 0 0 0 0 0 0 0 0 0 0 0 0 0 0 0 0 0 0.1 0"/>
<feBlend mode="normal" in2="effect2_dropShadow" result="effect3_dropShadow"/>
<feColorMatrix in="SourceAlpha" type="matrix" values="0 0 0 0 0 0 0 0 0 0 0 0 0 0 0 0 0 0 127 0"/>
<feOffset dy="12.0616"/>
<feGaussianBlur stdDeviation="8.93452"/>
<feColorMatrix type="matrix" values="0 0 0 0 0 0 0 0 0 0 0 0 0 0 0 0 0 0 0.119221 0"/>
<feBlend mode="normal" in2="effect3_dropShadow" result="effect4_dropShadow"/>
<feColorMatrix in="SourceAlpha" type="matrix" values="0 0 0 0 0 0 0 0 0 0 0 0 0 0 0 0 0 0 127 0"/>
<feOffset dy="22.5599"/>
<feGaussianBlur stdDeviation="16.711"/>
<feColorMatrix type="matrix" values="0 0 0 0 0 0 0 0 0 0 0 0 0 0 0 0 0 0 0.143771 0"/>
<feBlend mode="normal" in2="effect4_dropShadow" result="effect5_dropShadow"/>
<feColorMatrix in="SourceAlpha" type="matrix" values="0 0 0 0 0 0 0 0 0 0 0 0 0 0 0 0 0 0 127 0"/>
<feOffset dy="54"/>
<feGaussianBlur stdDeviation="40"/>
<feColorMatrix type="matrix" values="0 0 0 0 0 0 0 0 0 0 0 0 0 0 0 0 0 0 0.2 0"/>
<feBlend mode="normal" in2="effect5_dropShadow" result="effect6_dropShadow"/>
<feBlend mode="normal" in="SourceGraphic" in2="effect6_dropShadow" result="shape"/>
</filter>
</defs>
</svg>
